inDegrees=yes
name=ik_S49_A12_T02
DataType=double
version=3
OpenSimVersion=4.3-2021-08-27-4bc7ad9
endheader
time	pelvis_tilt	pelvis_list	pelvis_rotation	pelvis_tx	pelvis_ty	pelvis_tz	hip_flexion_r	hip_adduction_r	hip_rotation_r	knee_angle_r	knee_angle_r_beta	ankle_angle_r	subtalar_angle_r	mtp_angle_r	hip_flexion_l	hip_adduction_l	hip_rotation_l	knee_angle_l	knee_angle_l_beta	ankle_angle_l	subtalar_angle_l	mtp_angle_l	lumbar_extension	lumbar_bending	lumbar_rotation	arm_flex_r	arm_add_r	arm_rot_r	elbow_flex_r	pro_sup_r	wrist_flex_r	wrist_dev_r	arm_flex_l	arm_add_l	arm_rot_l	elbow_flex_l	pro_sup_l	wrist_flex_l	wrist_dev_l
4.219999999999998	-0.6376334675788191	-0.2442935530665558	33.20707204694407	0	0.9399999999999999	0	21.93627410417194	-7.865192539520034	-6.830844780647341	23.82818122796174	0.4158802171898378	0	0	0	21.93627410417194	-7.865192539520034	-6.830844780647341	23.82818122796174	0.4158802171898378	0	0	0	-0.7871601847306851	-0.2349625951737861	11.83995631614792	0.4798188734743759	-1.605446302722815	-2.360868076054613	5.151223378933873	96.02330673298208	0	0	16.33325842192331	-4.675083389063301	-3.299138002479014	0.2080919165633147	89.87197039099667	0	0
4.239999999999998	-0.6174973782875049	-0.1859624472156431	33.58741151121637	0	0.9399999999999999	0	21.95217257259989	-7.869872435325194	-6.835303683844112	23.84504072712079	0.4161744709604006	0	0	0	21.95217257259989	-7.869872435325194	-6.835303683844112	23.84504072712079	0.4161744709604006	0	0	0	-0.7383687113864414	-0.195554132494213	11.70966789603916	0.3637572569643346	-1.619180956684564	-2.340800536568787	5.148179349541132	95.84368480649073	0	0	18.30938934769593	-5.663565561501813	-4.101189393511636	1.428178263056152	89.41398780418224	0	0
4.259999999999997	-0.6012431979650023	-0.1114205569278684	33.90158938080976	0	0.9399999999999999	0	21.96907822261997	-7.874840900625918	-6.840041716183936	23.86297002575393	0.4164873962541221	0	0	0	21.96907822261997	-7.874840900625918	-6.840041716183936	23.86297002575393	0.4164873962541221	0	0	0	-0.6848292446453353	-0.1392396966972471	11.58543447169822	0.2789305673317308	-1.66361833691997	-2.237930911305057	5.133417868962443	95.72048460254591	0	0	20.38937334774513	-6.682037837817929	-4.416423849087357	2.945659060944637	88.39262379200446	0	0
4.279999999999997	-0.5854505529261044	-0.01227306784982622	34.14339353327478	0	0.9399999999999999	0	22.02569691261737	-7.891359251996568	-6.855854823169343	23.92312462401773	0.4175372920540399	0	0	0	22.02569691261737	-7.891359251996568	-6.855854823169343	23.92312462401773	0.4175372920540399	0	0	0	-0.615917742759728	-0.06961550699229667	11.55729120445661	0.154016611109897	-1.751644929245481	-2.17833912633851	5.129274705461136	95.55429896973301	0	0	20.246234414494	-6.545785508373514	-4.092449140177862	7.114921366279472	86.73343146450252	0	0
4.299999999999996	-0.5679983317134366	0.05073528470903559	34.3695968733364	0	0.9399999999999999	0	22.05429933109938	-7.899680411736059	-6.863834560920591	23.95348960019986	0.4180672608657077	0	0	0	22.05429933109938	-7.899680411736059	-6.863834560920591	23.95348960019986	0.4180672608657077	0	0	0	-0.5676357127825742	-0.0224919437050175	11.458024498583	0.09789371496308409	-1.785952436569167	-2.090162220655835	5.090357277974561	95.58536803596691	0	0	22.47832044995237	-7.587752832064889	-4.021998656372293	9.383683924614315	85.75442837171236	0	0
4.319999999999996	-0.5441942153847331	0.1058494339893608	34.66831564102425	0	0.9399999999999999	0	22.07987617849783	-7.907084102787228	-6.87095288652197	23.9806782901417	0.4185417930244967	0	0	0	22.07987617849783	-7.907084102787228	-6.87095288652197	23.9806782901417	0.4185417930244967	0	0	0	-0.5197693064396046	0.01831678350434524	11.24059724570723	0.01582611656194018	-1.802193549425125	-1.971835432267877	5.167273080383641	95.66699288588363	0	0	27.3978269252583	-9.632538123768377	-3.996434416466732	9.597238966188232	85.16801493304726	0	0
4.339999999999995	-0.5338488478620206	0.1593375431708272	34.83599434377238	0	0.9399999999999999	0	22.10753366328564	-7.915090597112734	-6.878652271632489	24.01004352351444	0.4190543130324676	0	0	0	22.10753366328564	-7.915090597112734	-6.878652271632489	24.01004352351444	0.4190543130324676	0	0	0	-0.481555825939579	0.0612794218152282	11.13317251217974	-0.07214758234217751	-1.852463977007434	-2.03407430622211	5.188442468943039	95.71972879756309	0	0	30.03920993625554	-10.65284513649266	-3.969586423172268	12.24116589515949	84.03119040296053	0	0
4.359999999999995	-0.5150413811164682	0.2204869933484807	34.99894969414818	0	0.9399999999999999	0	22.13534053174552	-7.923118679015241	-6.886384134979789	24.03956931756416	0.4195696353529009	0	0	0	22.13534053174552	-7.923118679015241	-6.886384134979789	24.03956931756416	0.4195696353529009	0	0	0	-0.4323429284165384	0.1076572350889247	10.97584806492467	-0.1419219119441134	-1.881257760777922	-1.930261119930124	5.208513393204259	95.64374429366927	0	0	32.81708518911682	-11.7703664852279	-3.984577380814023	14.97392728020303	82.61155312715334	0	0
4.379999999999995	-0.5154889170769003	0.272584869144916	35.07772844646644	0	0.9399999999999999	0	22.17248497448277	-7.93379934979615	-6.896693671684456	24.07902362665543	0.4202582429506431	0	0	0	22.17248497448277	-7.93379934979615	-6.896693671684456	24.07902362665543	0.4202582429506431	0	0	0	-0.3997887652935089	0.1539212456828933	10.87131038754847	-0.1174905502583123	-1.940628436381193	-1.983181138922213	5.119852368459089	95.73598139756615	0	0	35.84932175987986	-13.08937428100056	-3.464838327328259	23.39950455531343	78.81968738114936	0	0
4.399999999999994	-0.5144267519496055	0.2906390265618237	35.12239147596072	0	0.9399999999999999	0	22.19875973085265	-7.941339057439776	-6.903979889130741	24.10692929548447	0.4207452887516809	0	0	0	22.19875973085265	-7.941339057439776	-6.903979889130741	24.10692929548447	0.4207452887516809	0	0	0	-0.3879300127602701	0.1698487342340481	10.81384501014195	-0.1248808736610589	-1.956533040742734	-2.054949094891772	5.167096869035299	95.79815211003682	0	0	39.10621239813414	-14.16442732855306	-2.880708821729592	26.166546610478	76.57129804206498	0	0
4.419999999999994	-0.5165994041558051	0.3389122311265211	35.09356328890884	0	0.9399999999999999	0	22.21246077954055	-7.94526887280149	-6.907777876050732	24.12148993986219	0.4209994199372842	0	0	0	22.21246077954055	-7.94526887280149	-6.907777876050732	24.12148993986219	0.4209994199372842	0	0	0	-0.3611330334989274	0.2109332163953034	10.78385938369625	-0.2049021654660344	-2.000845726860339	-2.015514599802782	5.261119985755405	95.68858862156426	0	0	42.21727954835644	-14.78984490784926	-2.315270541365734	23.35835729844857	76.27066588761048	0	0
4.439999999999993	-0.5333662800842016	0.3714765174127416	34.97664885799082	0	0.9399999999999999	0	22.23770709153457	-7.952484869251442	-6.914766611435463	24.14830895837917	0.4214675001125588	0	0	0	22.23770709153457	-7.952484869251442	-6.914766611435463	24.14830895837917	0.4214675001125588	0	0	0	-0.3555697435146131	0.2433403540573845	10.8059943094439	-0.2204603070316655	-2.047124430647565	-1.966317625909507	5.279620001326478	95.66963098115686	0	0	45.55333442619538	-15.66949640561734	-1.185087235213052	26.15510375150143	73.69195797860245	0	0
4.459999999999993	-0.534833982604218	0.417847925617511	34.81564803001167	0	0.9399999999999999	0	22.25227814715848	-7.956654290747592	-6.918802353811909	24.16378054030418	0.4217375301576423	0	0	0	22.25227814715848	-7.956654290747592	-6.918802353811909	24.16378054030418	0.4217375301576423	0	0	0	-0.3278549329771982	0.274400547561592	10.83949948120762	-0.290715032618918	-2.098594938511704	-1.895072099669649	5.338718198309793	95.54757698460523	0	0	48.84223926185155	-16.58959715916953	0.0573914604831578	28.95868807568534	70.97801201277858	0	0
4.479999999999992	-0.552547071916704	0.4462072315582834	34.60039618037241	0	0.9399999999999999	0	22.26596602996842	-7.960564419315209	-6.922590466406302	24.17831903844571	0.4219912748185072	0	0	0	22.26596602996842	-7.960564419315209	-6.922590466406302	24.17831903844571	0.4219912748185072	0	0	0	-0.3261315999433148	0.3008398324259885	10.90080377435309	-0.340522399172028	-2.124935426579388	-1.841968271275359	5.418684740783203	95.36148815255638	0	0	52.32123595246104	-17.49308168491331	1.449791717229715	31.41634240681473	68.20496512130477	0	0
4.499999999999992	-0.5878671266187939	0.4998485229382514	34.27629101150966	0	0.9399999999999999	0	22.30693682527624	-7.972186578691321	-6.933891363506212	24.22190993609115	0.4227520795063199	0	0	0	22.30693682527624	-7.972186578691321	-6.933891363506212	24.22190993609115	0.4227520795063199	0	0	0	-0.3233799707095373	0.3597772542965342	11.00623383202253	-0.4224789694125835	-2.237239953267002	-1.805646992454061	5.479410729551295	95.36655510913634	0	0	52.29868341618309	-18.05655050288612	1.392569179077955	36.40317000831543	66.67919191240748	0	0
4.519999999999992	-0.6535493734695541	0.5558023748483049	33.89181891914069	0	0.9399999999999999	0	22.32085943413185	-7.976146702102796	-6.937737639050806	24.23669073011516	0.423010053028098	0	0	0	22.32085943413185	-7.976146702102796	-6.937737639050806	24.23669073011516	0.423010053028098	0	0	0	-0.341599617058275	0.4316793627789658	11.06013752020467	-0.4381388968330494	-2.35963486379775	-1.688486728271218	5.58073244398389	94.64836804866967	0	0	55.8110873870996	-18.91772048720616	2.599040021784002	38.1095532262708	64.68661841643063	0	0
4.539999999999991	-0.7145751432539355	0.6200755911378888	33.57968395145477	0	0.9399999999999999	0	22.33586889636306	-7.980380856855439	-6.94186451935154	24.25271352268914	0.423289703513878	0	0	0	22.33586889636306	-7.980380856855439	-6.94186451935154	24.25271352268914	0.423289703513878	0	0	0	-0.3552175124159643	0.5167123082411981	11.11759442023164	-0.4847568492984197	-2.515000647535948	-1.58337530383593	5.603748093104744	94.828669148785	0	0	55.80311720087868	-19.47103766111624	2.359283339666809	42.37038943251257	63.85464529968176	0	0
4.559999999999991	-0.7942073243181653	0.6748938665437132	33.17234765924748	0	0.9399999999999999	0	22.64718216126621	-8.043967346241894	-7.013197440926672	24.65683528527418	0.4303429588499498	0	0	0	22.64718216126621	-8.043967346241894	-7.013197440926672	24.65683528527418	0.4303429588499498	0	0	0	-0.3661153176865881	0.5438033822376065	11.25417690669922	-0.4682760388049882	-2.620243184845516	-1.310812043490899	5.669028040923107	93.96089033337593	0	0	66.28277846473225	-20.36905384729558	6.665099026626758	37.71015347701206	60.68385981137009	0	0
